<?xml version="1.0" encoding="UTF-8"?>
<!DOCTYPE svg PUBLIC "-//W3C//DTD SVG 1.1//EN" "http://www.w3.org/Graphics/SVG/1.1/DTD/svg11.dtd">
<!-- Creator: CorelDRAW 2017 -->
<svg xmlns="http://www.w3.org/2000/svg" xml:space="preserve" width="297mm" height="210mm" version="1.1" style="shape-rendering:geometricPrecision; text-rendering:geometricPrecision; image-rendering:optimizeQuality; fill-rule:evenodd; clip-rule:evenodd"
viewBox="0 0 29700 21000"
 xmlns:xlink="http://www.w3.org/1999/xlink">
 <defs>
  <style type="text/css">
   <![CDATA[
    .str0 {stroke:#FFC000;stroke-width:42.33;stroke-miterlimit:22.9256}
    .str1 {stroke:#D9DADA;stroke-width:17.64;stroke-miterlimit:22.9256}
    .fil0 {fill:none}
    .fil4 {fill:#434242}
    .fil5 {fill:#FEFEFE;fill-rule:nonzero}
    .fil1 {fill:#434242;fill-rule:nonzero}
    .fil2 {fill:#FFC000;fill-rule:nonzero}
    .fil6 {fill:url(#id0)}
    .fil3 {fill:url(#id1)}
   ]]>
  </style>
  <linearGradient id="id0" gradientUnits="userSpaceOnUse" x1="8255.28" y1="2740.82" x2="9027.01" y2="2740.82">
   <stop offset="0" style="stop-opacity:1; stop-color:#FFC000"/>
   <stop offset="0.580392" style="stop-opacity:1; stop-color:#FFDF7F"/>
   <stop offset="1" style="stop-opacity:1; stop-color:white"/>
  </linearGradient>
  <linearGradient id="id1" gradientUnits="userSpaceOnUse" xlink:href="#id0" x1="8508.2" y1="7686.91" x2="9279.93" y2="7686.91">
  </linearGradient>
 </defs>
 <g id="Слой_x0020_1">
  <metadata id="CorelCorpID_0Corel-Layer"/>
  <polyline class="fil0 str0" points="3711.02,9236.32 2271.91,9236.32 2271.91,8194.2 1763.2,8194.2 2991.48,7101.62 4219.75,8194.2 8586.49,8194.2 "/>
  <path class="fil1" d="M2784.59 8532.29c71.85,4.98 123.81,22.84 155.89,53.59 31.89,30.75 47.84,73.28 47.84,127.6 0,68.68 -26.76,127.97 -80.25,177.69 -53.51,49.9 -121.42,74.75 -203.91,74.75l-39.6 -1.1c-33.62,-1.47 -61.91,-2.21 -85.06,-2.21 -16.81,0 -37.38,0.55 -61.91,1.84l-41.67 1.47 0 -24.3c20.75,-10.86 33.1,-18.97 37.05,-24.86 3.77,-5.71 6.17,-15.28 6.68,-28.54 2.41,-42.72 3.6,-91.51 3.6,-146.2l0 -336.04c0,-89.86 -3.09,-140.68 -9.08,-152.65 -7.21,-13.99 -25.21,-20.99 -53.51,-20.99l-34.13 0 0 -33.14 41.68 0 46.12 1.66c24.18,1.1 43.05,1.65 56.77,1.65 21.09,0 62.76,-0.92 125.18,-2.76l73.23 -1.65c57.62,0 100.65,10.86 129.12,32.4 35.84,27.44 53.67,66.11 53.67,116.01 0,41.06 -12.68,77.15 -37.89,108.08 -25.38,30.93 -68.59,56.9 -129.82,77.7zm-166.67 -14.91c16.8,0.74 32.06,1.1 46.12,1.1 66.7,0 114.38,-12.7 143.19,-38.11 28.81,-25.23 43.22,-61.87 43.22,-109.74 0,-41.25 -12.01,-73.1 -36.19,-95.2 -24.01,-22.1 -62.59,-33.14 -115.4,-33.14 -23.5,0 -49.06,2.39 -76.49,6.99 -2.92,44.01 -4.45,110.48 -4.45,199.42l0 68.68zm0 394.59c31.2,4.98 56.93,7.55 77.5,7.55 59.17,0 105.29,-16.94 137.87,-50.82 32.75,-33.88 49.05,-79.91 49.05,-138.1 0,-38.85 -7.21,-70.89 -21.6,-96.11 -14.41,-25.23 -34.65,-43.83 -60.54,-55.43 -26.07,-11.6 -67.57,-17.49 -124.5,-17.49 -17.15,0 -36.36,0.37 -57.78,1.11l0 191.31 0.51 67.94c1.02,24.49 1.53,43.09 1.53,56.16 0,9.58 -0.68,20.99 -2.04,33.88z"/>
  <path id="1" class="fil1" d="M3098.24 8591.03l0.51 -36.27 -0.51 -37.38 54.87 -33.33c24.69,-14.91 46.48,-25.22 64.99,-30.93 18.69,-5.71 38.42,-8.66 59.51,-8.66 46.3,0 83.51,11.05 111.98,33.33 28.29,22.28 45.27,50.82 50.93,85.25 3.94,25.78 6.51,90.04 7.54,192.42 0.69,96.67 2.75,149.89 6.01,160.01 3.26,10.13 11.66,15.1 25.03,15.1l38.93 0 0 35.35c-38.24,-2.21 -64.82,-3.31 -79.92,-3.31 -18.86,0 -43.89,1.1 -75.44,3.31l0.51 -47.87c0,-15.28 -0.18,-30.93 -0.51,-46.77l-104.1 85.25c-9.25,7.55 -18.52,12.89 -27.61,15.84 -8.91,3.13 -21.61,4.6 -37.55,4.6 -43.21,0 -76.31,-11.41 -99.12,-34.25 -22.81,-22.83 -34.12,-53.58 -34.12,-92.06 0,-36.28 8.05,-68.13 24.34,-95.38 16.3,-27.07 39.45,-47.14 69.46,-60.03 29.84,-13.07 99.45,-30.01 208.7,-50.82 -0.69,-45.48 -10.13,-79.54 -28.13,-102.19 -22.81,-28.36 -55.22,-42.54 -97.4,-42.54 -16.13,0 -31.21,2.03 -45.28,6.26 -14.06,4.24 -27.09,10.68 -39.26,19.15 -9.61,25.78 -18.52,50.46 -26.59,74.02l-27.77 -8.1zm264.43 85.44c-93.12,21.54 -152.28,41.8 -177.32,60.76 -25.21,18.78 -37.72,48.06 -37.72,87.65 0,26.7 7.2,48.06 21.6,64.08 14.4,16.02 32.93,23.93 55.73,23.93 25.21,0 49.21,-7.54 72.2,-22.64 22.81,-15.1 44.76,-37.57 65.51,-67.58l-1.04 -119.69 1.04 -26.51z"/>
  <path id="2" class="fil1" d="M3730.5 8927.26c18.69,2.94 48.71,4.42 90.03,4.42l37.05 0c42.69,0 72.7,-1.48 90.02,-4.42l1.54 -220.04c0,-125.21 -1.37,-193.34 -4.28,-204.2 -2.75,-11.05 -17.67,-16.57 -44.42,-16.57l-35.66 0 0 -30.94c43.9,2.21 82.82,3.32 117.12,3.32 35.83,0 82.14,-1.11 139.07,-3.32l0 30.94 -36.18 0c-29.15,0 -44.76,7.36 -46.99,21.91 -2.23,14.54 -3.26,80.28 -3.26,197.2l2.06 221.7c20.41,2.94 50.25,4.42 89.69,4.42l38.75 0c40.64,0 69.97,-1.48 87.63,-4.42l2.06 -206.05c0,-125.57 -1.03,-195.91 -3.09,-211.56 -1.89,-15.47 -16.8,-23.2 -44.58,-23.2l-36.7 0 0 -30.94c44.24,2.21 83.17,3.32 117.12,3.32 36.01,0 82.49,-1.11 139.07,-3.32l0 30.94 -35.15 0c-30.52,0 -46.47,9.57 -48.01,28.9 -1.55,19.15 -2.23,85.99 -2.23,200.16l1.02 99.24c0.35,61.5 1.21,94.83 2.75,100.35 1.54,5.34 6.51,9.95 15.09,14 8.58,3.86 19.04,5.89 31.38,5.89l35.15 0 0 30.93c-53.16,-2.21 -99.45,-3.31 -138.89,-3.31l-612.55 0c-34.12,0 -73.05,1.1 -116.95,3.31l0 -30.93 36.01 0c25.55,0 40.3,-6.63 43.91,-19.89 3.59,-13.44 5.48,-78.62 5.48,-195.73 0,-126.86 -1.71,-197.39 -4.97,-211.57 -3.43,-14.17 -18.18,-21.35 -44.42,-21.35l-36.01 0 0 -30.94c44.25,2.21 83.17,3.32 117.12,3.32 36.01,0 82.49,-1.11 139.07,-3.32l0 30.94 -35.67 0c-16.45,0 -27.94,2.39 -34.63,7.36 -6.69,4.79 -10.64,10.13 -11.83,15.84 -1.2,5.89 -2.06,34.98 -2.58,87.64 -0.51,52.66 -0.68,91.88 -0.68,117.48l1.54 212.49z"/>
  <path id="3" class="fil1" d="M4727.86 9255.38l22.64 -83.96 11.66 0c9.09,11.41 18.17,19.88 27.26,25.59 9.09,5.71 18.36,8.65 27.78,8.65 20.93,0 39.96,-10.68 57.28,-32.22 17.15,-21.54 43.55,-81.57 79.4,-179.9 -14.75,-41.61 -44.08,-121.34 -88.15,-239l-46.47 -123.37 -37.55 -94.46c-11.84,-33.51 -29.33,-50.26 -52.83,-50.26l-20.06 0 0 -30.94c34.82,2.21 65.51,3.32 92.26,3.32 20.58,0 68.94,-1.11 144.73,-3.32l0 30.94 -37.21 0c-12.68,0 -21.94,2.39 -27.77,6.99 -5.84,4.79 -8.76,10.5 -8.76,17.31 0,5.89 3.1,18.41 9.44,37.56 33.79,99.8 73.74,206.97 119.52,321.13 44.07,-104.59 82.49,-205.31 115.24,-302.34 9.77,-28.55 14.58,-45.85 14.58,-51.93 0,-11.6 -11.32,-19.15 -34.13,-22.83l-37.21 -5.89 0 -30.94c39.27,2.21 74.25,3.32 104.95,3.32 28.98,0 57.96,-1.11 87.28,-3.32l0 30.94 -17.49 0c-7.72,0 -15.61,2.39 -23.66,7.18 -8.06,4.97 -14.58,11.6 -19.55,20.25 -10.8,18.23 -41.67,88.2 -92.95,209.54 -14.06,33.51 -49.9,123.92 -107.52,271.6 -50.59,124.47 -79.39,192.97 -86.08,205.12 -13.04,23.75 -29.67,42.17 -50.07,54.87 -20.24,12.71 -42.36,19.15 -66.02,19.15 -9.61,0 -19.55,-1.66 -29.84,-4.79 -10.12,-3.31 -20.41,-7.91 -30.7,-13.99z"/>
  <path id="4" class="fil1" d="M5571.73 8707.4l-14.92 0c-14.57,-0.73 -23.83,-1.1 -27.95,-1.1l-65.16 1.1 1.03 169.04c0,23.01 1.03,36.64 3.25,41.43 2.24,4.6 7.38,8.65 15.78,11.96 8.41,3.5 18.36,5.16 29.67,5.16l35.67 0 0 30.93c-53.85,-2.21 -100.32,-3.31 -139.76,-3.31 -34.29,0 -73.4,1.1 -117.47,3.31l0 -30.93 36.36 0c26.07,0 40.81,-6.63 44.58,-19.89 3.61,-13.44 5.49,-78.62 5.49,-195.73 0,-126.86 -1.72,-197.39 -4.98,-211.57 -3.42,-14.17 -18.51,-21.35 -45.09,-21.35l-36.36 0 0 -30.94c44.42,2.21 83.51,3.32 117.47,3.32 36.36,0 83,-1.11 139.76,-3.32l0 30.94 -35.67 0c-10.63,0 -20.75,1.84 -30.18,5.7 -9.26,3.69 -14.92,9.03 -16.46,15.84 -1.72,7 -2.58,35.72 -2.58,86.54l-0.51 69.79c28.81,2.57 48.87,3.86 59.68,3.86 14.41,0 31.38,-1.29 51.44,-3.86 9.61,-65.92 37.22,-119.14 82.49,-159.46 45.44,-40.33 102.55,-60.4 171.14,-60.4 66.88,0 122.61,22.1 166.68,66.11 44.24,44.19 66.36,105.14 66.36,183.02 0,85.62 -25.72,154.31 -77.34,205.86 -51.61,51.74 -113.18,77.52 -184.85,77.52 -67.57,0 -122.44,-24.12 -164.46,-72.18 -42.01,-48.24 -63.11,-113.97 -63.11,-197.39zm233.91 -223.16c-42.01,0 -75.62,16.2 -101,48.42 -25.56,32.23 -38.24,80.47 -38.24,144.73 0,67.39 14.23,127.79 42.52,181 28.3,53.22 68.94,79.91 122.28,79.91 40.46,0 73.21,-16.75 98.25,-50.08 24.86,-33.33 37.38,-83.04 37.38,-148.96 0,-76.42 -14.23,-138.1 -42.7,-184.87 -28.46,-46.77 -68.08,-70.15 -118.49,-70.15z"/>
  <path id="5" class="fil1" d="M6146.72 8606.87l-34.98 0c0.68,-18.42 1.03,-33.51 1.03,-45.48 0,-14 -1.72,-49.72 -5.14,-106.98 67.9,2.21 110.78,3.31 128.43,3.31l216.42 0c24.69,0 67.56,-1.1 128.44,-3.31 -3.43,57.26 -5.14,92.98 -5.14,106.98 0,11.97 0.34,27.06 1.02,45.48l-34.98 0c-3.6,-62.61 -9.77,-96.67 -18.34,-102.2 -8.41,-5.52 -52.31,-8.28 -131.53,-8.28 -1.89,22.28 -2.92,43.64 -2.92,63.89l0 47.51 -1.54 92.98 0 126.13c0,47.14 0.69,74.58 2.05,82.13 1.37,7.55 5.49,13.81 12.52,18.59 7.21,4.98 18.87,7.37 34.98,7.37l35.85 0 0 30.93c-53.85,-2.21 -100.32,-3.31 -139.76,-3.31 -34.3,0 -73.4,1.1 -117.47,3.31l0 -30.93 36.36 0c22.28,0 36.18,-4.6 41.66,-13.81 5.67,-9.21 8.41,-37.56 8.41,-85.07l0 -135.34c0,-94.82 -1.72,-162.95 -4.98,-204.38l-25.72 0c-62.58,0 -98.25,2.76 -106.49,8.47 -8.4,5.71 -14.4,39.77 -18.18,102.01z"/>
  <path id="6" class="fil1" d="M7051.13 8663.95c-0.69,-87.46 -2.23,-138.84 -4.46,-154.3 -2.39,-15.47 -17.31,-23.2 -44.93,-23.2l-36.01 0 0 -30.94c44.25,2.21 83.17,3.32 117.13,3.32 36.01,0 82.48,-1.11 139.07,-3.32l0 30.94 -35.67 0c-30.18,0 -45.96,9.57 -47.5,28.9 -1.54,19.15 -2.23,84.15 -2.23,194.82l1.03 127.78c0.34,43.09 1.03,67.58 2.05,73.29 0.86,5.71 4.63,11.23 11.15,16.2 6.69,4.97 18.35,7.55 35.5,7.55l35.67 0 0 30.93c-53.5,-2.21 -99.97,-3.31 -139.07,-3.31 -34.3,0 -73.23,1.1 -117.13,3.31l0 -30.93 36.01 0c25.56,0 40.13,-6.44 43.39,-19.15 3.26,-12.7 4.98,-39.22 4.98,-79.36 0,-31.49 0.33,-74.94 1.02,-130.18l-134.79 -2.21 -135.81 2.21 1.03 169.95c0,22.65 1.03,36.46 3.25,41.25 2.24,4.79 7.38,9.02 15.78,12.33 8.41,3.5 18.36,5.16 29.67,5.16l35.67 0 0 30.93c-53.85,-2.21 -100.32,-3.31 -139.76,-3.31 -34.29,0 -73.4,1.1 -117.47,3.31l0 -30.93 36.36 0c26.07,0 40.81,-6.63 44.58,-19.89 3.61,-13.44 5.49,-78.62 5.49,-195.73 0,-126.86 -1.72,-197.39 -4.98,-211.57 -3.42,-14.17 -18.51,-21.35 -45.09,-21.35l-36.36 0 0 -30.94c44.42,2.21 83.51,3.32 117.47,3.32 36.36,0 83,-1.11 139.76,-3.32l0 30.94 -35.67 0c-10.63,0 -20.75,1.84 -30.18,5.7 -9.26,3.69 -14.92,9.03 -16.46,15.84 -1.72,6.81 -2.58,35.72 -2.58,86.36l-0.51 69.6c45.27,3.87 102.55,5.89 171.83,5.89 42.86,0 75.8,-2.02 98.77,-5.89z"/>
  <path id="7" class="fil1" d="M7296.87 8965.92l0 -24.3c23.83,-10.13 37.38,-20.62 40.46,-31.86 3.26,-11.04 4.81,-74.38 4.81,-190.02 0,-127.6 -1.72,-198.31 -4.98,-212.3 -3.42,-14 -18.17,-20.99 -44.41,-20.99l-36.01 0 0 -30.94c44.41,2.21 83.51,3.32 117.46,3.32 36.36,0 83,-1.11 139.77,-3.32l0 30.94 -35.84 0c-29.33,0 -45.11,9.02 -47.33,26.88 -2.24,17.86 -3.26,62.42 -3.26,133.31l0 22.1c34.98,-0.74 59.33,-1.11 73.05,-1.11 69.1,0 122.61,11.23 160.85,33.7 38.24,22.65 57.27,56.34 57.27,101.27 0,51.19 -23.66,90.59 -70.99,118.4 -47.33,27.8 -105.46,41.61 -174.23,41.61l-112.83 0 -22.13 1.47c-18,1.29 -31.89,1.84 -41.66,1.84zm130.67 -262.94l0 123.37c0,40.14 0.86,74.02 2.57,101.46 16.29,2.58 29.66,3.87 39.95,3.87 104.79,0 157.09,-39.22 157.09,-117.85 0,-38.11 -13.39,-66.29 -39.97,-84.51 -26.74,-18.23 -62.24,-27.44 -106.66,-27.44l-52.98 1.1zm294.27 -216.53l0 -30.94c44.41,2.21 83.51,3.32 117.46,3.32 36.35,0 83,-1.11 139.76,-3.32l0 30.94 -35.67 0c-30.18,0 -45.95,9.57 -47.5,28.54 -1.55,19.15 -2.23,85.99 -2.23,200.52l0.52 95.01c0.34,63.15 1.2,97.77 2.73,103.66 1.55,5.9 6.52,10.87 15.1,14.92 8.58,3.86 19.04,5.89 31.38,5.89l35.67 0 0 30.93c-53.84,-2.21 -100.32,-3.31 -139.76,-3.31 -34.3,0 -73.39,1.1 -117.46,3.31l0 -30.93 36.35 0c26.57,0 41.67,-7 45.1,-20.99 3.26,-13.99 4.97,-83.41 4.97,-208.07 0,-118.03 -1.71,-183.95 -4.97,-198.13 -3.43,-14.17 -18.53,-21.35 -45.1,-21.35l-36.35 0z"/>
  <path id="8" class="fil1" d="M8627.07 8455.51l0 30.94 -35.67 0c-30.18,0 -45.96,9.57 -47.51,28.9 -1.36,19.15 -2.22,84.15 -2.22,194.82l1.02 127.78c0.35,43.09 1.04,67.58 2.06,73.29 1.03,5.71 4.81,11.23 11.33,16.2 6.51,4.97 18.34,7.55 35.32,7.55l35.67 0 0 30.93c-53.5,-2.21 -99.98,-3.31 -139.07,-3.31 -34.3,0 -73.23,1.1 -117.13,3.31l0 -30.93 36.19 0c22.12,0 35.83,-4.42 41.15,-13.44 5.32,-9.02 8.06,-38.48 8.06,-88.38l0 -237.53c0,-36.28 2.57,-64.08 7.54,-83.42 -12,19.71 -23.83,38.49 -35.67,55.98 -16.29,24.86 -30.35,46.77 -42.01,65.92l-111.8 184.5c-46.13,76.23 -80.43,126.87 -103.24,152.09 -10.64,1.47 -35.84,6.08 -75.97,14 3.43,-80.29 5.14,-157.25 5.14,-231.09 0,-149.33 -1.53,-231.27 -4.79,-245.63 -3.26,-14.36 -18.35,-21.54 -45.27,-21.54l-36.36 0 0 -30.94c44.41,2.21 83.51,3.32 117.46,3.32 36.36,0 83,-1.11 139.77,-3.32l0 30.94 -35.84 0c-10.12,0 -20.07,1.84 -29.67,5.34 -9.6,3.68 -15.27,9.2 -17.15,16.75 -1.89,7.55 -2.74,36.64 -2.74,86.91l0 232.19c0,23.02 -1.21,43.46 -3.61,61.13 12.18,-11.97 42.88,-58.18 92.27,-138.65l73.73 -119.87c13.72,-22.28 48.02,-80.46 103.23,-174.74 28.47,2.21 51.62,3.32 69.28,3.32 10.12,0 45.62,-1.11 106.5,-3.32zm-414.83 -113.42l-3.93 -15.65c30.17,-19.15 53.5,-36.09 70.3,-51.01 54.53,32.22 120.04,51.19 196.69,56.9l2.57 16.94 -32.57 16.75 -46.82 1.11c-47.84,0 -109.92,-8.29 -186.24,-25.04z"/>
  <path class="fil2" d="M6064.79 9152.11c-4.71,4.71 -8.48,7.07 -11.31,7.07 -5.65,0 -8.48,-2.83 -8.48,-8.48 0,-1.89 1.42,-5.19 4.24,-9.9 15.08,-17.9 22.62,-33.92 22.62,-48.05 0,-30.15 -32.98,-45.23 -98.94,-45.23 -84.8,0 -171.96,41.93 -261.47,125.79 -79.15,76.32 -118.72,139.45 -118.72,189.39 0,19.79 9.89,29.68 29.68,29.68 12.25,0 29.68,-5.18 52.29,-15.55 54.65,-23.55 100.35,-57.94 137.1,-103.17 14.13,-18.85 26.85,-48.05 38.16,-87.63 7.54,-30.15 12.25,-57.48 14.13,-81.97 3.77,-17.91 21.2,-26.86 52.3,-26.86 29.21,0 42.87,8.01 40.99,24.03 -1.89,24.5 -8.49,64.78 -19.79,120.84 -11.31,56.07 -27.8,127.91 -49.47,215.54 36.75,-5.65 67.84,-6.6 93.28,-2.83 70.67,8.48 106,32.04 106,70.67 0,23.56 -14.13,48.53 -42.4,74.91 -3.77,3.77 -7.53,5.65 -11.3,5.65 -5.66,0 -8.48,-2.35 -8.48,-7.06 0,-3.77 1.88,-7.54 5.65,-11.31 19.79,-17.9 29.68,-34.86 29.68,-50.88 0,-31.1 -31.09,-46.64 -93.28,-46.64 -10.37,0.94 -23.09,2.12 -38.16,3.53 -15.08,1.41 -32.51,3.53 -52.3,6.36 -55.59,211.06 -147.46,380.66 -275.6,508.81 -70.67,72.55 -151.23,130.5 -241.69,173.84 -97.99,49 -193.63,73.5 -286.91,73.5 -70.67,0 -126.73,-17.67 -168.19,-53 -41.46,-35.34 -62.19,-81.27 -62.19,-137.81 0,-65.95 32.98,-133.32 98.94,-202.11 72.55,-76.32 178.32,-145.57 317.3,-207.76 138.98,-62.19 319.65,-121.55 542.02,-178.08 3.77,-17.91 8.72,-41.23 14.84,-69.97 6.13,-28.73 13.43,-63.83 21.91,-105.29l-33.92 33.92c-23.56,23.56 -43.82,43.11 -60.78,58.65 -16.96,15.55 -30.62,27.57 -40.98,36.05 -44.29,34.86 -83.86,52.29 -118.73,52.29 -41.45,0 -62.18,-27.33 -62.18,-81.98 0,-79.14 58.42,-163.94 175.25,-254.4 95.17,-74.44 191.28,-111.66 288.33,-111.66 75.38,0 113.07,21.68 113.07,65.02 0,20.73 -10.84,44.76 -32.51,72.08zm-272.78 344.86c-101.76,28.27 -179.49,50.88 -233.2,67.84 -56.54,17.9 -108.83,35.57 -156.89,53 -48.05,17.43 -92.33,35.57 -132.85,54.42 -57.48,26.38 -108.36,54.88 -152.64,85.51 -44.29,30.62 -81.51,63.83 -111.66,99.64 -52.77,63.13 -79.15,123.9 -79.15,182.32 0,48.05 17.9,85.51 53.71,112.36 35.81,26.86 83.39,40.28 142.75,40.28 127.2,0 251.58,-53.7 373.13,-161.12 144.16,-128.14 243.09,-306.23 296.8,-534.25z"/>
  <path id="1" class="fil2" d="M6201.88 9323.13l0 1.41c-7.53,32.98 -11.3,59.36 -11.3,79.15 0,50.88 18.37,76.32 55.12,76.32 43.34,0 81.03,-23.08 113.07,-69.25 -69.73,-10.37 -122.02,-39.58 -156.89,-87.63zm132.86 -251.58c-44.28,49 -80.09,106.94 -107.41,173.84 17.9,77.27 68.31,121.55 151.22,132.86 32.98,-64.07 49.47,-123.44 49.47,-178.09 0,-34.86 -8.24,-64.54 -24.73,-89.04 -16.49,-24.5 -39.34,-37.69 -68.55,-39.57zm26.85 -26.85l-5.65 5.65c33.92,11.31 62.19,31.09 84.8,59.36 22.62,28.27 33.92,59.36 33.92,93.28 0,60.3 -16.01,117.78 -48.05,172.43l-2.83 5.65c87.63,-2.82 159.24,-32.03 214.83,-87.62 4.71,-4.71 9.43,-7.07 14.14,-7.07 5.65,0 8.48,3.3 8.48,9.89 0,9.43 -4.71,17.43 -14.14,24.03 -69.72,61.25 -151.23,91.87 -244.51,91.87 -25.44,32.03 -55.59,58.18 -90.45,78.44 -34.87,20.26 -67.37,30.39 -97.52,30.39 -64.08,0 -95.17,-37.69 -93.29,-113.07 0,-51.82 13.67,-113.54 40.99,-185.15 -0.94,-7.54 -1.65,-15.55 -2.12,-24.03 -0.47,-8.48 -0.71,-16.96 -0.71,-25.44 0,-78.21 38.16,-121.55 114.49,-130.03 20.73,-23.55 39.1,-35.33 55.12,-35.33 26.38,0 39.57,7.54 39.57,22.61 0,4.71 -2.35,9.42 -7.07,14.14z"/>
  <path id="2" class="fil2" d="M6960.86 9089.92c0,-3.77 6.83,-6.36 20.49,-7.77 13.67,-1.41 28.98,-1.89 45.94,-1.41 16.96,0.47 32.27,1.88 45.93,4.24 13.66,2.35 20.5,5.41 20.5,9.18 0,5.66 -1.89,8.95 -5.66,9.9 -13.19,22.61 -23.79,44.52 -31.8,65.72 -8.01,21.2 -14.84,42.63 -20.49,64.31 -5.66,21.67 -10.37,44.05 -14.14,67.13 -3.76,23.08 -8,47.35 -12.72,72.79 26.39,-31.1 58.19,-67.14 95.41,-108.12 37.21,-40.99 81.26,-87.4 132.15,-139.22 22.61,-24.5 40.98,-36.75 55.12,-36.75 6.59,0 9.89,4.71 9.89,14.14 0,6.59 -1.41,14.6 -4.24,24.02 -34.86,113.07 -52.29,192.69 -52.29,238.86 0,52.77 18.84,79.15 56.53,79.15 38.63,0 81.03,-17.43 127.2,-52.29 8.48,-7.54 21.2,-19.09 38.16,-34.63 16.96,-15.55 37.69,-35.57 62.19,-60.07 7.54,-7.54 13.66,-11.31 18.37,-11.31 4.72,0 8.01,2.83 9.9,8.48 0.94,7.54 -0.47,13.19 -4.24,16.96 -105.53,111.19 -199.29,166.78 -281.26,166.78 -71.61,0 -107.42,-54.18 -107.42,-162.54 0,-23.55 1.42,-49.46 4.24,-77.73 -13.19,11.31 -26.85,24.03 -40.98,38.16 -14.14,14.13 -28.04,28.27 -41.7,42.4 -13.66,14.13 -26.62,27.8 -38.87,40.99 -12.24,13.19 -22.61,24.97 -31.09,35.33 3.77,16.96 -1.88,28.27 -16.96,33.92 -16.02,5.66 -28.27,2.83 -36.75,-8.48 -3.77,-14.13 -5.18,-34.15 -4.24,-60.07 0.95,-25.91 4.24,-54.17 9.9,-84.8 5.65,-30.62 13.42,-61.24 23.32,-91.87 9.89,-30.62 21.9,-57.71 36.04,-81.26l-36.75 1.41c-16.02,4.71 -28.27,13.19 -36.75,25.44 -8.48,12.25 -15.31,26.38 -20.49,42.4 -5.18,16.02 -9.42,32.27 -12.72,48.76 -3.3,16.49 -7.77,31.33 -13.43,44.52 -15.07,36.75 -32.51,70.44 -52.29,101.06 -19.79,30.62 -40.75,55.59 -62.9,74.91 -22.14,19.31 -44.99,31.56 -68.54,36.74 -23.56,5.19 -46.65,0.71 -69.26,-13.42 -14.13,-8.48 -26.15,-21.91 -36.04,-40.28 -9.89,-18.38 -14.84,-40.29 -14.84,-65.73 -1.88,-20.72 3.53,-37.21 16.25,-49.46 12.72,-12.25 25.68,-18.85 38.87,-19.79 13.19,-0.94 24.03,4.71 32.51,16.96 8.48,12.25 7.54,32.51 -2.83,60.77 -10.36,19.79 -12.48,35.1 -6.36,45.94 6.13,10.83 13.43,16.25 21.91,16.25 31.09,1.89 57.48,-8.48 79.15,-31.09 21.67,-22.62 41.93,-56.54 60.77,-101.76 8.48,-21.67 16.02,-43.11 22.61,-64.31 6.6,-21.2 14.14,-40.99 22.62,-59.36 8.48,-18.38 18.37,-34.87 29.68,-49.47 11.31,-14.6 25.44,-26.15 42.4,-34.63z"/>
  <path class="fil3" d="M8785.38 8059.07l-1.98 -0.56 1.25 -1.6 0.73 2.16zm0 0c36.34,-0.16 48.65,-66.21 48.68,-66.24 6.85,-10.24 26.63,1.46 77.18,-83.27 59.51,-99.74 105.63,-227.96 157.44,-330.39 36.12,-71.39 71.08,-144.29 106.98,-216.1l83.1 -159.74c7.71,-15.57 28.05,-37.76 18.8,-54.91 -23.38,1.52 -32.22,20.78 -44.62,37.77l-98.38 150.97c-40.18,67.6 -85.8,136.89 -128.43,203.3 -43.28,67.42 -87.13,133.89 -131.42,200.31 -21.74,32.61 -44.72,65.1 -68.88,95.9 -67.65,86.27 -28.68,104.17 -34.08,120.3 -5.23,6.1 -8.12,4.32 -13.76,11.82 -13.47,17.92 -21.6,35.66 -23.99,56.72 -12.13,1.28 -42.41,-9.43 -67.31,25.44 -12.88,18.03 -19.58,44.44 -33.06,64.51 -51.23,76.25 -114.67,60.64 -125.43,72.27 1.04,22.82 66.34,35.56 84.13,36.2 27.47,1 19.36,2.69 41.43,0.08 19.1,-2.25 29.79,2.56 66.81,-11.25 26.03,-9.71 55.13,-32.21 68.78,-54.8 8.25,-13.64 14.66,-28.35 17.7,-43.01 5.02,-24.07 3.27,-35.14 -1.67,-55.88z"/>
  <rect class="fil4 str1" x="1043.58" y="1957.81" width="8460.59" height="3664.46"/>
  <polyline class="fil0 str0" points="3458.1,4290.23 2018.99,4290.23 2018.99,3248.11 1510.28,3248.11 2738.56,2155.53 3966.83,3248.11 8333.57,3248.11 "/>
  <path class="fil5" d="M2531.67 3586.2c71.85,4.98 123.81,22.84 155.89,53.59 31.89,30.75 47.84,73.28 47.84,127.6 0,68.68 -26.76,127.97 -80.25,177.69 -53.51,49.9 -121.42,74.75 -203.91,74.75l-39.6 -1.1c-33.62,-1.47 -61.91,-2.21 -85.06,-2.21 -16.81,0 -37.38,0.55 -61.91,1.84l-41.67 1.47 0 -24.3c20.75,-10.86 33.1,-18.97 37.05,-24.86 3.77,-5.71 6.17,-15.28 6.68,-28.54 2.41,-42.72 3.6,-91.51 3.6,-146.2l0 -336.04c0,-89.86 -3.09,-140.68 -9.08,-152.65 -7.21,-13.99 -25.21,-20.99 -53.51,-20.99l-34.13 0 0 -33.14 41.68 0 46.12 1.66c24.18,1.1 43.05,1.65 56.77,1.65 21.09,0 62.76,-0.92 125.18,-2.76l73.23 -1.65c57.62,0 100.65,10.86 129.12,32.4 35.84,27.44 53.67,66.11 53.67,116.01 0,41.06 -12.68,77.15 -37.89,108.08 -25.38,30.93 -68.59,56.9 -129.82,77.7zm-166.67 -14.91c16.8,0.74 32.06,1.1 46.12,1.1 66.7,0 114.38,-12.7 143.19,-38.11 28.81,-25.23 43.22,-61.87 43.22,-109.74 0,-41.25 -12.01,-73.1 -36.19,-95.2 -24.01,-22.1 -62.59,-33.14 -115.4,-33.14 -23.5,0 -49.06,2.39 -76.49,6.99 -2.92,44.01 -4.45,110.48 -4.45,199.42l0 68.68zm0 394.59c31.2,4.98 56.93,7.55 77.5,7.55 59.17,0 105.29,-16.94 137.87,-50.82 32.75,-33.88 49.05,-79.91 49.05,-138.1 0,-38.85 -7.21,-70.89 -21.6,-96.11 -14.41,-25.23 -34.65,-43.83 -60.54,-55.43 -26.07,-11.6 -67.57,-17.49 -124.5,-17.49 -17.15,0 -36.36,0.37 -57.78,1.11l0 191.31 0.51 67.94c1.02,24.49 1.53,43.09 1.53,56.16 0,9.58 -0.68,20.99 -2.04,33.88z"/>
  <path id="1" class="fil5" d="M2845.32 3644.94l0.51 -36.27 -0.51 -37.38 54.87 -33.33c24.69,-14.91 46.48,-25.22 64.99,-30.93 18.69,-5.71 38.42,-8.66 59.51,-8.66 46.3,0 83.51,11.05 111.98,33.33 28.29,22.28 45.27,50.82 50.93,85.25 3.94,25.78 6.51,90.04 7.54,192.42 0.69,96.67 2.75,149.89 6.01,160.01 3.26,10.13 11.66,15.1 25.03,15.1l38.93 0 0 35.35c-38.24,-2.21 -64.82,-3.31 -79.92,-3.31 -18.86,0 -43.89,1.1 -75.44,3.31l0.51 -47.87c0,-15.28 -0.18,-30.93 -0.51,-46.77l-104.1 85.25c-9.25,7.55 -18.52,12.89 -27.61,15.84 -8.91,3.13 -21.61,4.6 -37.55,4.6 -43.21,0 -76.31,-11.41 -99.12,-34.25 -22.81,-22.83 -34.12,-53.58 -34.12,-92.06 0,-36.28 8.05,-68.13 24.34,-95.38 16.3,-27.07 39.45,-47.14 69.46,-60.03 29.84,-13.07 99.45,-30.01 208.7,-50.82 -0.69,-45.48 -10.13,-79.54 -28.13,-102.19 -22.81,-28.36 -55.22,-42.54 -97.4,-42.54 -16.13,0 -31.21,2.03 -45.28,6.26 -14.06,4.24 -27.09,10.68 -39.26,19.15 -9.61,25.78 -18.52,50.46 -26.59,74.02l-27.77 -8.1zm264.43 85.44c-93.12,21.54 -152.28,41.8 -177.32,60.76 -25.21,18.78 -37.72,48.06 -37.72,87.65 0,26.7 7.2,48.06 21.6,64.08 14.4,16.02 32.93,23.93 55.73,23.93 25.21,0 49.21,-7.54 72.2,-22.64 22.81,-15.1 44.76,-37.57 65.51,-67.58l-1.04 -119.69 1.04 -26.51z"/>
  <path id="2" class="fil5" d="M3477.58 3981.17c18.69,2.94 48.71,4.42 90.03,4.42l37.05 0c42.69,0 72.7,-1.48 90.02,-4.42l1.54 -220.04c0,-125.21 -1.37,-193.34 -4.28,-204.2 -2.75,-11.05 -17.67,-16.57 -44.42,-16.57l-35.66 0 0 -30.94c43.9,2.21 82.82,3.32 117.12,3.32 35.83,0 82.14,-1.11 139.07,-3.32l0 30.94 -36.18 0c-29.15,0 -44.76,7.36 -46.99,21.91 -2.23,14.54 -3.26,80.28 -3.26,197.2l2.06 221.7c20.41,2.94 50.25,4.42 89.69,4.42l38.75 0c40.64,0 69.97,-1.48 87.63,-4.42l2.06 -206.05c0,-125.57 -1.03,-195.91 -3.09,-211.56 -1.89,-15.47 -16.8,-23.2 -44.58,-23.2l-36.7 0 0 -30.94c44.24,2.21 83.17,3.32 117.12,3.32 36.01,0 82.49,-1.11 139.07,-3.32l0 30.94 -35.15 0c-30.52,0 -46.47,9.57 -48.01,28.9 -1.55,19.15 -2.23,85.99 -2.23,200.16l1.02 99.24c0.35,61.5 1.21,94.83 2.75,100.35 1.54,5.34 6.51,9.95 15.09,14 8.58,3.86 19.04,5.89 31.38,5.89l35.15 0 0 30.93c-53.16,-2.21 -99.45,-3.31 -138.89,-3.31l-612.55 0c-34.12,0 -73.05,1.1 -116.95,3.31l0 -30.93 36.01 0c25.55,0 40.3,-6.63 43.91,-19.89 3.59,-13.44 5.48,-78.62 5.48,-195.73 0,-126.86 -1.71,-197.39 -4.97,-211.57 -3.43,-14.17 -18.18,-21.35 -44.42,-21.35l-36.01 0 0 -30.94c44.25,2.21 83.17,3.32 117.12,3.32 36.01,0 82.49,-1.11 139.07,-3.32l0 30.94 -35.67 0c-16.45,0 -27.94,2.39 -34.63,7.36 -6.69,4.79 -10.64,10.13 -11.83,15.84 -1.2,5.89 -2.06,34.98 -2.58,87.64 -0.51,52.66 -0.68,91.88 -0.68,117.48l1.54 212.49z"/>
  <path id="3" class="fil5" d="M4474.94 4309.29l22.64 -83.96 11.66 0c9.09,11.41 18.17,19.88 27.26,25.59 9.09,5.71 18.36,8.65 27.78,8.65 20.93,0 39.96,-10.68 57.28,-32.22 17.15,-21.54 43.55,-81.57 79.4,-179.9 -14.75,-41.61 -44.08,-121.34 -88.15,-239l-46.47 -123.37 -37.55 -94.46c-11.84,-33.51 -29.33,-50.26 -52.83,-50.26l-20.06 0 0 -30.94c34.82,2.21 65.51,3.32 92.26,3.32 20.58,0 68.94,-1.11 144.73,-3.32l0 30.94 -37.21 0c-12.68,0 -21.94,2.39 -27.77,6.99 -5.84,4.79 -8.76,10.5 -8.76,17.31 0,5.89 3.1,18.41 9.44,37.56 33.79,99.8 73.74,206.97 119.52,321.13 44.07,-104.59 82.49,-205.31 115.24,-302.34 9.77,-28.55 14.58,-45.85 14.58,-51.93 0,-11.6 -11.32,-19.15 -34.13,-22.83l-37.21 -5.89 0 -30.94c39.27,2.21 74.25,3.32 104.95,3.32 28.98,0 57.96,-1.11 87.28,-3.32l0 30.94 -17.49 0c-7.72,0 -15.61,2.39 -23.66,7.18 -8.06,4.97 -14.58,11.6 -19.55,20.25 -10.8,18.23 -41.67,88.2 -92.95,209.54 -14.06,33.51 -49.9,123.92 -107.52,271.6 -50.59,124.47 -79.39,192.97 -86.08,205.12 -13.04,23.75 -29.67,42.17 -50.07,54.87 -20.24,12.71 -42.36,19.15 -66.02,19.15 -9.61,0 -19.55,-1.66 -29.84,-4.79 -10.12,-3.31 -20.41,-7.91 -30.7,-13.99z"/>
  <path id="4" class="fil5" d="M5318.81 3761.31l-14.92 0c-14.57,-0.73 -23.83,-1.1 -27.95,-1.1l-65.16 1.1 1.03 169.04c0,23.01 1.03,36.64 3.25,41.43 2.24,4.6 7.38,8.65 15.78,11.96 8.41,3.5 18.36,5.16 29.67,5.16l35.67 0 0 30.93c-53.85,-2.21 -100.32,-3.31 -139.76,-3.31 -34.29,0 -73.4,1.1 -117.47,3.31l0 -30.93 36.36 0c26.07,0 40.81,-6.63 44.58,-19.89 3.61,-13.44 5.49,-78.62 5.49,-195.73 0,-126.86 -1.72,-197.39 -4.98,-211.57 -3.42,-14.17 -18.51,-21.35 -45.09,-21.35l-36.36 0 0 -30.94c44.42,2.21 83.51,3.32 117.47,3.32 36.36,0 83,-1.11 139.76,-3.32l0 30.94 -35.67 0c-10.63,0 -20.75,1.84 -30.18,5.7 -9.26,3.69 -14.92,9.03 -16.46,15.84 -1.72,7 -2.58,35.72 -2.58,86.54l-0.51 69.79c28.81,2.57 48.87,3.86 59.68,3.86 14.41,0 31.38,-1.29 51.44,-3.86 9.61,-65.92 37.22,-119.14 82.49,-159.46 45.44,-40.33 102.55,-60.4 171.14,-60.4 66.88,0 122.61,22.1 166.68,66.11 44.24,44.19 66.36,105.14 66.36,183.02 0,85.62 -25.72,154.31 -77.34,205.86 -51.61,51.74 -113.18,77.52 -184.85,77.52 -67.57,0 -122.44,-24.12 -164.46,-72.18 -42.01,-48.24 -63.11,-113.97 -63.11,-197.39zm233.91 -223.16c-42.01,0 -75.62,16.2 -101,48.42 -25.56,32.23 -38.24,80.47 -38.24,144.73 0,67.39 14.23,127.79 42.52,181 28.3,53.22 68.94,79.91 122.28,79.91 40.46,0 73.21,-16.75 98.25,-50.08 24.86,-33.33 37.38,-83.04 37.38,-148.96 0,-76.42 -14.23,-138.1 -42.7,-184.87 -28.46,-46.77 -68.08,-70.15 -118.49,-70.15z"/>
  <path id="5" class="fil5" d="M5893.8 3660.78l-34.98 0c0.68,-18.42 1.03,-33.51 1.03,-45.48 0,-14 -1.72,-49.72 -5.14,-106.98 67.9,2.21 110.78,3.31 128.43,3.31l216.42 0c24.69,0 67.56,-1.1 128.44,-3.31 -3.43,57.26 -5.14,92.98 -5.14,106.98 0,11.97 0.34,27.06 1.02,45.48l-34.98 0c-3.6,-62.61 -9.77,-96.67 -18.34,-102.2 -8.41,-5.52 -52.31,-8.28 -131.53,-8.28 -1.89,22.28 -2.92,43.64 -2.92,63.89l0 47.51 -1.54 92.98 0 126.13c0,47.14 0.69,74.58 2.05,82.13 1.37,7.55 5.49,13.81 12.52,18.59 7.21,4.98 18.87,7.37 34.98,7.37l35.85 0 0 30.93c-53.85,-2.21 -100.32,-3.31 -139.76,-3.31 -34.3,0 -73.4,1.1 -117.47,3.31l0 -30.93 36.36 0c22.28,0 36.18,-4.6 41.66,-13.81 5.67,-9.21 8.41,-37.56 8.41,-85.07l0 -135.34c0,-94.82 -1.72,-162.95 -4.98,-204.38l-25.72 0c-62.58,0 -98.25,2.76 -106.49,8.47 -8.4,5.71 -14.4,39.77 -18.18,102.01z"/>
  <path id="6" class="fil5" d="M6798.21 3717.86c-0.69,-87.46 -2.23,-138.84 -4.46,-154.3 -2.39,-15.47 -17.31,-23.2 -44.93,-23.2l-36.01 0 0 -30.94c44.25,2.21 83.17,3.32 117.13,3.32 36.01,0 82.48,-1.11 139.07,-3.32l0 30.94 -35.67 0c-30.18,0 -45.96,9.57 -47.5,28.9 -1.54,19.15 -2.23,84.15 -2.23,194.82l1.03 127.78c0.34,43.09 1.03,67.58 2.05,73.29 0.86,5.71 4.63,11.23 11.15,16.2 6.69,4.97 18.35,7.55 35.5,7.55l35.67 0 0 30.93c-53.5,-2.21 -99.97,-3.31 -139.07,-3.31 -34.3,0 -73.23,1.1 -117.13,3.31l0 -30.93 36.01 0c25.56,0 40.13,-6.44 43.39,-19.15 3.26,-12.7 4.98,-39.22 4.98,-79.36 0,-31.49 0.33,-74.94 1.02,-130.18l-134.79 -2.21 -135.81 2.21 1.03 169.95c0,22.65 1.03,36.46 3.25,41.25 2.24,4.79 7.38,9.02 15.78,12.33 8.41,3.5 18.36,5.16 29.67,5.16l35.67 0 0 30.93c-53.85,-2.21 -100.32,-3.31 -139.76,-3.31 -34.29,0 -73.4,1.1 -117.47,3.31l0 -30.93 36.36 0c26.07,0 40.81,-6.63 44.58,-19.89 3.61,-13.44 5.49,-78.62 5.49,-195.73 0,-126.86 -1.72,-197.39 -4.98,-211.57 -3.42,-14.17 -18.51,-21.35 -45.09,-21.35l-36.36 0 0 -30.94c44.42,2.21 83.51,3.32 117.47,3.32 36.36,0 83,-1.11 139.76,-3.32l0 30.94 -35.67 0c-10.63,0 -20.75,1.84 -30.18,5.7 -9.26,3.69 -14.92,9.03 -16.46,15.84 -1.72,6.81 -2.58,35.72 -2.58,86.36l-0.51 69.6c45.27,3.87 102.55,5.89 171.83,5.89 42.86,0 75.8,-2.02 98.77,-5.89z"/>
  <path id="7" class="fil5" d="M7043.95 4019.83l0 -24.3c23.83,-10.13 37.38,-20.62 40.46,-31.86 3.26,-11.04 4.81,-74.38 4.81,-190.02 0,-127.6 -1.72,-198.31 -4.98,-212.3 -3.42,-14 -18.17,-20.99 -44.41,-20.99l-36.01 0 0 -30.94c44.41,2.21 83.51,3.32 117.46,3.32 36.36,0 83,-1.11 139.77,-3.32l0 30.94 -35.84 0c-29.33,0 -45.11,9.02 -47.33,26.88 -2.24,17.86 -3.26,62.42 -3.26,133.31l0 22.1c34.98,-0.74 59.33,-1.11 73.05,-1.11 69.1,0 122.61,11.23 160.85,33.7 38.24,22.65 57.27,56.34 57.27,101.27 0,51.19 -23.66,90.59 -70.99,118.4 -47.33,27.8 -105.46,41.61 -174.23,41.61l-112.83 0 -22.13 1.47c-18,1.29 -31.89,1.84 -41.66,1.84zm130.67 -262.94l0 123.37c0,40.14 0.86,74.02 2.57,101.46 16.29,2.58 29.66,3.87 39.95,3.87 104.79,0 157.09,-39.22 157.09,-117.85 0,-38.11 -13.39,-66.29 -39.97,-84.51 -26.74,-18.23 -62.24,-27.44 -106.66,-27.44l-52.98 1.1zm294.27 -216.53l0 -30.94c44.41,2.21 83.51,3.32 117.46,3.32 36.35,0 83,-1.11 139.76,-3.32l0 30.94 -35.67 0c-30.18,0 -45.95,9.57 -47.5,28.54 -1.55,19.15 -2.23,85.99 -2.23,200.52l0.52 95.01c0.34,63.15 1.2,97.77 2.73,103.66 1.55,5.9 6.52,10.87 15.1,14.92 8.58,3.86 19.04,5.89 31.38,5.89l35.67 0 0 30.93c-53.84,-2.21 -100.32,-3.31 -139.76,-3.31 -34.3,0 -73.39,1.1 -117.46,3.31l0 -30.93 36.35 0c26.57,0 41.67,-7 45.1,-20.99 3.26,-13.99 4.97,-83.41 4.97,-208.07 0,-118.03 -1.71,-183.95 -4.97,-198.13 -3.43,-14.17 -18.53,-21.35 -45.1,-21.35l-36.35 0z"/>
  <path id="8" class="fil5" d="M8374.15 3509.42l0 30.94 -35.67 0c-30.18,0 -45.96,9.57 -47.51,28.9 -1.36,19.15 -2.22,84.15 -2.22,194.82l1.02 127.78c0.35,43.09 1.04,67.58 2.06,73.29 1.03,5.71 4.81,11.23 11.33,16.2 6.51,4.97 18.34,7.55 35.32,7.55l35.67 0 0 30.93c-53.5,-2.21 -99.98,-3.31 -139.07,-3.31 -34.3,0 -73.23,1.1 -117.13,3.31l0 -30.93 36.19 0c22.12,0 35.83,-4.42 41.15,-13.44 5.32,-9.02 8.06,-38.48 8.06,-88.38l0 -237.53c0,-36.28 2.57,-64.08 7.54,-83.42 -12,19.71 -23.83,38.49 -35.67,55.98 -16.29,24.86 -30.35,46.77 -42.01,65.92l-111.8 184.5c-46.13,76.23 -80.43,126.87 -103.24,152.09 -10.64,1.47 -35.84,6.08 -75.97,14 3.43,-80.29 5.14,-157.25 5.14,-231.09 0,-149.33 -1.53,-231.27 -4.79,-245.63 -3.26,-14.36 -18.35,-21.54 -45.27,-21.54l-36.36 0 0 -30.94c44.41,2.21 83.51,3.32 117.46,3.32 36.36,0 83,-1.11 139.77,-3.32l0 30.94 -35.84 0c-10.12,0 -20.07,1.84 -29.67,5.34 -9.6,3.68 -15.27,9.2 -17.15,16.75 -1.89,7.55 -2.74,36.64 -2.74,86.91l0 232.19c0,23.02 -1.21,43.46 -3.61,61.13 12.18,-11.97 42.88,-58.18 92.27,-138.65l73.73 -119.87c13.72,-22.28 48.02,-80.46 103.23,-174.74 28.47,2.21 51.62,3.32 69.28,3.32 10.12,0 45.62,-1.11 106.5,-3.32zm-414.83 -113.42l-3.93 -15.65c30.17,-19.15 53.5,-36.09 70.3,-51.01 54.53,32.22 120.04,51.19 196.69,56.9l2.57 16.94 -32.57 16.75 -46.82 1.11c-47.84,0 -109.92,-8.29 -186.24,-25.04z"/>
  <path class="fil2" d="M5811.87 4206.02c-4.71,4.71 -8.48,7.07 -11.31,7.07 -5.65,0 -8.48,-2.83 -8.48,-8.48 0,-1.89 1.42,-5.19 4.24,-9.9 15.08,-17.9 22.62,-33.92 22.62,-48.05 0,-30.15 -32.98,-45.23 -98.94,-45.23 -84.8,0 -171.96,41.93 -261.47,125.79 -79.15,76.32 -118.72,139.45 -118.72,189.39 0,19.79 9.89,29.68 29.68,29.68 12.25,0 29.68,-5.18 52.29,-15.55 54.65,-23.55 100.35,-57.94 137.1,-103.17 14.13,-18.85 26.85,-48.05 38.16,-87.63 7.54,-30.15 12.25,-57.48 14.13,-81.97 3.77,-17.91 21.2,-26.86 52.3,-26.86 29.21,0 42.87,8.01 40.99,24.03 -1.89,24.5 -8.49,64.78 -19.79,120.84 -11.31,56.07 -27.8,127.91 -49.47,215.54 36.75,-5.65 67.84,-6.6 93.28,-2.83 70.67,8.48 106,32.04 106,70.67 0,23.56 -14.13,48.53 -42.4,74.91 -3.77,3.77 -7.53,5.65 -11.3,5.65 -5.66,0 -8.48,-2.35 -8.48,-7.06 0,-3.77 1.88,-7.54 5.65,-11.31 19.79,-17.9 29.68,-34.86 29.68,-50.88 0,-31.1 -31.09,-46.64 -93.28,-46.64 -10.37,0.94 -23.09,2.12 -38.16,3.53 -15.08,1.41 -32.51,3.53 -52.3,6.36 -55.59,211.06 -147.46,380.66 -275.6,508.81 -70.67,72.55 -151.23,130.5 -241.69,173.84 -97.99,49 -193.63,73.5 -286.91,73.5 -70.67,0 -126.73,-17.67 -168.19,-53 -41.46,-35.34 -62.19,-81.27 -62.19,-137.81 0,-65.95 32.98,-133.32 98.94,-202.11 72.55,-76.32 178.32,-145.57 317.3,-207.76 138.98,-62.19 319.65,-121.55 542.02,-178.08 3.77,-17.91 8.72,-41.23 14.84,-69.97 6.13,-28.73 13.43,-63.83 21.91,-105.29l-33.92 33.92c-23.56,23.56 -43.82,43.11 -60.78,58.65 -16.96,15.55 -30.62,27.57 -40.98,36.05 -44.29,34.86 -83.86,52.29 -118.73,52.29 -41.45,0 -62.18,-27.33 -62.18,-81.98 0,-79.14 58.42,-163.94 175.25,-254.4 95.17,-74.44 191.28,-111.66 288.33,-111.66 75.38,0 113.07,21.68 113.07,65.02 0,20.73 -10.84,44.76 -32.51,72.08zm-272.78 344.86c-101.76,28.27 -179.49,50.88 -233.2,67.84 -56.54,17.9 -108.83,35.57 -156.89,53 -48.05,17.43 -92.33,35.57 -132.85,54.42 -57.48,26.38 -108.36,54.88 -152.64,85.51 -44.29,30.62 -81.51,63.83 -111.66,99.64 -52.77,63.13 -79.15,123.9 -79.15,182.32 0,48.05 17.9,85.51 53.71,112.36 35.81,26.86 83.39,40.28 142.75,40.28 127.2,0 251.58,-53.7 373.13,-161.12 144.16,-128.14 243.09,-306.23 296.8,-534.25z"/>
  <path id="1" class="fil2" d="M5948.96 4377.04l0 1.41c-7.53,32.98 -11.3,59.36 -11.3,79.15 0,50.88 18.37,76.32 55.12,76.32 43.34,0 81.03,-23.08 113.07,-69.25 -69.73,-10.37 -122.02,-39.58 -156.89,-87.63zm132.86 -251.58c-44.28,49 -80.09,106.94 -107.41,173.84 17.9,77.27 68.31,121.55 151.22,132.86 32.98,-64.07 49.47,-123.44 49.47,-178.09 0,-34.86 -8.24,-64.54 -24.73,-89.04 -16.49,-24.5 -39.34,-37.69 -68.55,-39.57zm26.85 -26.85l-5.65 5.65c33.92,11.31 62.19,31.09 84.8,59.36 22.62,28.27 33.92,59.36 33.92,93.28 0,60.3 -16.01,117.78 -48.05,172.43l-2.83 5.65c87.63,-2.82 159.24,-32.03 214.83,-87.62 4.71,-4.71 9.43,-7.07 14.14,-7.07 5.65,0 8.48,3.3 8.48,9.89 0,9.43 -4.71,17.43 -14.14,24.03 -69.72,61.25 -151.23,91.87 -244.51,91.87 -25.44,32.03 -55.59,58.18 -90.45,78.44 -34.87,20.26 -67.37,30.39 -97.52,30.39 -64.08,0 -95.17,-37.69 -93.29,-113.07 0,-51.82 13.67,-113.54 40.99,-185.15 -0.94,-7.54 -1.65,-15.55 -2.12,-24.03 -0.47,-8.48 -0.71,-16.96 -0.71,-25.44 0,-78.21 38.16,-121.55 114.49,-130.03 20.73,-23.55 39.1,-35.33 55.12,-35.33 26.38,0 39.57,7.54 39.57,22.61 0,4.71 -2.35,9.42 -7.07,14.14z"/>
  <path id="2" class="fil2" d="M6707.94 4143.83c0,-3.77 6.83,-6.36 20.49,-7.77 13.67,-1.41 28.98,-1.89 45.94,-1.41 16.96,0.47 32.27,1.88 45.93,4.24 13.66,2.35 20.5,5.41 20.5,9.18 0,5.66 -1.89,8.95 -5.66,9.9 -13.19,22.61 -23.79,44.52 -31.8,65.72 -8.01,21.2 -14.84,42.63 -20.49,64.31 -5.66,21.67 -10.37,44.05 -14.14,67.13 -3.76,23.08 -8,47.35 -12.72,72.79 26.39,-31.1 58.19,-67.14 95.41,-108.12 37.21,-40.99 81.26,-87.4 132.15,-139.22 22.61,-24.5 40.98,-36.75 55.12,-36.75 6.59,0 9.89,4.71 9.89,14.14 0,6.59 -1.41,14.6 -4.24,24.02 -34.86,113.07 -52.29,192.69 -52.29,238.86 0,52.77 18.84,79.15 56.53,79.15 38.63,0 81.03,-17.43 127.2,-52.29 8.48,-7.54 21.2,-19.09 38.16,-34.63 16.96,-15.55 37.69,-35.57 62.19,-60.07 7.54,-7.54 13.66,-11.31 18.37,-11.31 4.72,0 8.01,2.83 9.9,8.48 0.94,7.54 -0.47,13.19 -4.24,16.96 -105.53,111.19 -199.29,166.78 -281.26,166.78 -71.61,0 -107.42,-54.18 -107.42,-162.54 0,-23.55 1.42,-49.46 4.24,-77.73 -13.19,11.31 -26.85,24.03 -40.98,38.16 -14.14,14.13 -28.04,28.27 -41.7,42.4 -13.66,14.13 -26.62,27.8 -38.87,40.99 -12.24,13.19 -22.61,24.97 -31.09,35.33 3.77,16.96 -1.88,28.27 -16.96,33.92 -16.02,5.66 -28.27,2.83 -36.75,-8.48 -3.77,-14.13 -5.18,-34.15 -4.24,-60.07 0.95,-25.91 4.24,-54.17 9.9,-84.8 5.65,-30.62 13.42,-61.24 23.32,-91.87 9.89,-30.62 21.9,-57.71 36.04,-81.26l-36.75 1.41c-16.02,4.71 -28.27,13.19 -36.75,25.44 -8.48,12.25 -15.31,26.38 -20.49,42.4 -5.18,16.02 -9.42,32.27 -12.72,48.76 -3.3,16.49 -7.77,31.33 -13.43,44.52 -15.07,36.75 -32.51,70.44 -52.29,101.06 -19.79,30.62 -40.75,55.59 -62.9,74.91 -22.14,19.31 -44.99,31.56 -68.54,36.74 -23.56,5.19 -46.65,0.71 -69.26,-13.42 -14.13,-8.48 -26.15,-21.91 -36.04,-40.28 -9.89,-18.38 -14.84,-40.29 -14.84,-65.73 -1.88,-20.72 3.53,-37.21 16.25,-49.46 12.72,-12.25 25.68,-18.85 38.87,-19.79 13.19,-0.94 24.03,4.71 32.51,16.96 8.48,12.25 7.54,32.51 -2.83,60.77 -10.36,19.79 -12.48,35.1 -6.36,45.94 6.13,10.83 13.43,16.25 21.91,16.25 31.09,1.89 57.48,-8.48 79.15,-31.09 21.67,-22.62 41.93,-56.54 60.77,-101.76 8.48,-21.67 16.02,-43.11 22.61,-64.31 6.6,-21.2 14.14,-40.99 22.62,-59.36 8.48,-18.38 18.37,-34.87 29.68,-49.47 11.31,-14.6 25.44,-26.15 42.4,-34.63z"/>
  <path class="fil6" d="M8532.46 3112.98l-1.98 -0.56 1.25 -1.6 0.73 2.16zm0 0c36.34,-0.16 48.65,-66.21 48.68,-66.24 6.85,-10.24 26.63,1.46 77.18,-83.27 59.51,-99.74 105.63,-227.96 157.44,-330.39 36.12,-71.39 71.08,-144.29 106.98,-216.1l83.1 -159.74c7.71,-15.57 28.05,-37.76 18.8,-54.91 -23.38,1.52 -32.22,20.78 -44.62,37.77l-98.38 150.97c-40.18,67.6 -85.8,136.89 -128.43,203.3 -43.28,67.42 -87.13,133.89 -131.42,200.31 -21.74,32.61 -44.72,65.1 -68.88,95.9 -67.65,86.27 -28.68,104.17 -34.08,120.3 -5.23,6.1 -8.12,4.32 -13.76,11.82 -13.47,17.92 -21.6,35.66 -23.99,56.72 -12.13,1.28 -42.41,-9.43 -67.31,25.44 -12.88,18.03 -19.58,44.44 -33.06,64.51 -51.23,76.25 -114.67,60.64 -125.43,72.27 1.04,22.82 66.34,35.56 84.13,36.2 27.47,1 19.36,2.69 41.43,0.08 19.1,-2.25 29.79,2.56 66.81,-11.25 26.03,-9.71 55.13,-32.21 68.78,-54.8 8.25,-13.64 14.66,-28.35 17.7,-43.01 5.02,-24.07 3.27,-35.14 -1.67,-55.88z"/>
 </g>
</svg>
