<?xml version="1.0" encoding="UTF-8"?>
<!DOCTYPE svg PUBLIC "-//W3C//DTD SVG 1.1//EN" "http://www.w3.org/Graphics/SVG/1.1/DTD/svg11.dtd">
<!-- Creator: CorelDRAW X7 -->
<svg xmlns="http://www.w3.org/2000/svg" xml:space="preserve" width="297mm" height="210mm" version="1.1" style="shape-rendering:geometricPrecision; text-rendering:geometricPrecision; image-rendering:optimizeQuality; fill-rule:evenodd; clip-rule:evenodd"
viewBox="0 0 29700 21000"
 xmlns:xlink="http://www.w3.org/1999/xlink">
 <defs>
  <style type="text/css">
   <![CDATA[
    .str0 {stroke:#FFC000;stroke-width:70.55}
    .fil0 {fill:none}
    .fil1 {fill:#434242;fill-rule:nonzero}
    .fil2 {fill:#FFC000;fill-rule:nonzero}
    .fil3 {fill:url(#id0)}
   ]]>
  </style>
  <linearGradient id="id0" gradientUnits="userSpaceOnUse" x1="25291.6" y1="8257.95" x2="27875.8" y2="8257.95">
   <stop offset="0" style="stop-opacity:1; stop-color:#FFC000"/>
   <stop offset="0.580392" style="stop-opacity:1; stop-color:#FFDF7F"/>
   <stop offset="1" style="stop-opacity:1; stop-color:white"/>
  </linearGradient>
 </defs>
 <g id="Слой_x0020_1">
  <metadata id="CorelCorpID_0Corel-Layer"/>
  <g id="_612972440">
   <polyline class="fil0 str0" points="9228,13446 4409,13446 4409,9957 2705,9957 6818,6298 10931,9957 25554,9957 "/>
   <path class="fil1" d="M6126 11089c240,16 414,76 521,179 107,103 161,246 161,428 0,230 -90,428 -269,595 -179,167 -407,250 -683,250l-132 -4c-113,-5 -208,-7 -285,-7 -57,0 -125,2 -208,6l-139 5 0 -82c69,-36 111,-63 124,-83 13,-19 21,-51 22,-95 8,-143 12,-307 12,-490l0 -1125c0,-301 -10,-471 -30,-511 -24,-47 -84,-71 -179,-71l-114 0 0 -111 139 0 155 6c80,4 144,6 190,6 70,0 210,-4 419,-10l245 -5c193,0 337,36 432,108 120,92 180,222 180,389 0,137 -42,258 -127,362 -85,103 -229,190 -434,260zm-559 -50c57,2 108,4 155,4 223,0 383,-43 479,-128 97,-85 145,-207 145,-368 0,-138 -40,-244 -121,-318 -81,-74 -210,-111 -387,-111 -78,0 -164,8 -256,23 -9,147 -15,370 -15,668l0 230zm0 1321c105,17 191,25 260,25 198,0 352,-56 462,-170 109,-113 164,-267 164,-462 0,-130 -24,-238 -73,-322 -48,-84 -116,-147 -202,-186 -88,-38 -226,-58 -417,-58 -58,0 -122,1 -194,4l0 640 2 228c4,82 5,144 5,188 0,32 -2,70 -7,113zm1609 -1075l1 -121 -1 -125 184 -112c82,-50 155,-84 217,-103 63,-19 129,-29 199,-29 155,0 280,37 375,111 95,75 152,170 171,286 13,86 22,301 25,644 3,324 9,502 20,536 11,34 39,50 84,50l130 0 0 119c-128,-8 -217,-11 -267,-11 -63,0 -147,3 -253,11l2 -160c0,-52 -1,-104 -2,-157l-348 285c-31,26 -62,44 -93,53 -30,11 -72,16 -126,16 -144,0 -255,-38 -331,-115 -77,-76 -115,-179 -115,-308 0,-122 27,-228 82,-320 54,-90 132,-157 232,-201 100,-43 333,-100 699,-170 -2,-152 -34,-266 -94,-342 -76,-95 -185,-142 -326,-142 -54,0 -105,6 -152,21 -47,14 -90,35 -131,64 -32,86 -62,169 -89,248l-93 -28zm885 287c-312,72 -510,140 -594,203 -84,63 -126,161 -126,294 0,89 24,160 73,214 48,54 110,80 186,80 85,0 165,-25 242,-76 76,-50 150,-125 219,-226l-3 -401 3 -88zm1232 839c63,10 163,15 301,15l124 0c143,0 244,-5 302,-15l5 -736c0,-420 -4,-648 -14,-684 -9,-37 -59,-56 -149,-56l-119 0 0 -103c147,7 277,11 392,11 120,0 275,-4 465,-11l0 103 -121 0c-97,0 -150,25 -157,74 -7,48 -11,268 -11,660l7 742c68,10 168,15 300,15l130 0c136,0 234,-5 294,-15l6 -690c0,-420 -3,-656 -10,-708 -6,-52 -56,-78 -149,-78l-123 0 0 -103c148,7 278,11 392,11 121,0 276,-4 466,-11l0 103 -118 0c-102,0 -156,32 -161,97 -5,64 -7,288 -7,670l3 333c1,206 4,317 9,336 6,18 22,33 51,47 29,12 64,19 105,19l118 0 0 104c-178,-8 -333,-11 -465,-11l-2052 0c-114,0 -244,3 -391,11l0 -104 120 0c86,0 135,-22 147,-66 13,-45 19,-264 19,-656 0,-425 -6,-661 -17,-708 -11,-48 -61,-72 -149,-72l-120 0 0 -103c148,7 278,11 392,11 121,0 276,-4 466,-11l0 103 -120 0c-55,0 -93,8 -116,25 -22,16 -35,34 -39,53 -4,20 -7,117 -9,293 -2,177 -2,308 -2,394l5 711zm3340 1099l76 -281 39 0c30,38 60,67 91,86 30,19 61,29 93,29 70,0 134,-36 192,-108 57,-72 146,-273 266,-603 -50,-139 -148,-406 -296,-800l-155 -413 -126 -316c-40,-113 -98,-169 -177,-169l-67 0 0 -103c117,7 219,11 309,11 69,0 231,-4 485,-11l0 103 -125 0c-43,0 -74,8 -93,24 -20,16 -29,35 -29,58 0,19 10,61 31,125 113,335 247,693 400,1076 148,-350 277,-688 386,-1013 33,-95 49,-153 49,-174 0,-38 -38,-64 -114,-76l-125 -20 0 -103c132,7 249,11 352,11 97,0 194,-4 292,-11l0 103 -59 0c-25,0 -52,8 -79,24 -27,17 -49,39 -65,68 -36,61 -140,295 -312,702 -47,112 -167,415 -360,909 -169,417 -265,646 -288,687 -43,80 -99,141 -168,184 -67,42 -141,64 -221,64 -32,0 -65,-6 -100,-16 -33,-11 -68,-27 -102,-47zm2826 -1835l-50 0c-49,-2 -80,-4 -94,-4l-218 4 3 566c0,77 4,123 11,139 8,15 25,29 53,40 28,12 61,17 99,17l120 0 0 104c-181,-8 -336,-11 -468,-11 -115,0 -246,3 -394,11l0 -104 122 0c87,0 137,-22 149,-66 12,-45 19,-264 19,-656 0,-425 -6,-661 -17,-708 -11,-48 -62,-72 -151,-72l-122 0 0 -103c149,7 280,11 394,11 121,0 278,-4 468,-11l0 103 -120 0c-35,0 -69,6 -101,19 -31,13 -50,31 -55,53 -6,24 -9,120 -9,290l-1 234c96,9 163,13 200,13 48,0 105,-4 172,-13 32,-221 124,-399 276,-534 152,-135 343,-202 573,-202 224,0 411,74 558,221 148,148 223,352 223,613 0,287 -87,517 -259,689 -173,174 -379,260 -619,260 -227,0 -410,-81 -551,-242 -141,-161 -211,-382 -211,-661zm783 -747c-141,0 -253,54 -338,162 -86,108 -129,269 -129,485 0,225 48,428 143,606 95,178 231,267 409,267 136,0 246,-56 329,-167 84,-112 126,-278 126,-499 0,-256 -48,-463 -143,-619 -96,-157 -228,-235 -397,-235zm1142 411l-117 0c2,-62 3,-113 3,-153 0,-47 -6,-166 -17,-358 227,7 371,11 430,11l725 0c82,0 226,-4 430,-11 -12,192 -17,311 -17,358 0,40 1,91 3,153l-117 0c-12,-210 -33,-324 -62,-343 -28,-18 -175,-27 -440,-27 -6,74 -10,146 -10,214l0 159 -5 311 0 422c0,158 2,250 7,275 5,26 18,47 42,63 24,16 63,24 117,24l120 0 0 104c-180,-8 -336,-11 -468,-11 -115,0 -246,3 -393,11l0 -104 121 0c75,0 122,-15 140,-46 19,-31 28,-126 28,-285l0 -453c0,-318 -6,-546 -16,-684l-87 0c-209,0 -329,9 -356,28 -28,19 -48,133 -61,342zm3028 191c-2,-293 -7,-465 -15,-517 -8,-52 -58,-78 -150,-78l-121 0 0 -103c149,7 279,11 393,11 120,0 276,-4 465,-11l0 103 -119 0c-101,0 -154,32 -159,97 -5,64 -8,282 -8,652l4 428c1,145 3,227 7,246 3,19 15,37 37,54 22,17 61,25 119,25l119 0 0 104c-179,-8 -334,-11 -465,-11 -115,0 -246,3 -393,11l0 -104 121 0c86,0 134,-21 145,-64 11,-42 17,-131 17,-266 0,-105 1,-251 3,-436l-451 -7 -455 7 4 570c0,75 3,122 11,138 7,16 24,30 52,41 29,12 62,17 100,17l119 0 0 104c-180,-8 -336,-11 -468,-11 -115,0 -246,3 -393,11l0 -104 122 0c87,0 136,-22 149,-66 12,-45 18,-264 18,-656 0,-425 -5,-661 -16,-708 -12,-48 -62,-72 -151,-72l-122 0 0 -103c149,7 280,11 393,11 122,0 278,-4 468,-11l0 103 -119 0c-36,0 -70,6 -101,19 -31,13 -50,31 -55,53 -6,23 -9,120 -9,290l-2 233c152,13 344,19 576,19 143,0 253,-6 330,-19zm823 1011l0 -82c80,-33 125,-69 136,-106 11,-37 16,-249 16,-637 0,-427 -6,-664 -17,-710 -11,-47 -61,-71 -149,-71l-120 0 0 -103c149,7 280,11 393,11 122,0 278,-4 468,-11l0 103 -120 0c-98,0 -151,30 -158,90 -8,60 -11,209 -11,447l0 74c117,-3 199,-4 244,-4 232,0 411,38 539,113 128,76 192,189 192,339 0,171 -79,303 -238,396 -158,94 -353,140 -583,140l-378 0 -74 5c-60,4 -107,6 -140,6zm438 -881l0 413c0,135 3,248 8,340 55,9 100,13 134,13 351,0 526,-131 526,-394 0,-128 -45,-222 -134,-283 -89,-61 -208,-92 -357,-92l-177 3zm985 -725l0 -103c149,7 280,11 394,11 121,0 278,-4 468,-11l0 103 -120 0c-101,0 -154,32 -159,96 -5,64 -7,288 -7,671l1 318c1,212 4,328 10,348 5,19 21,36 50,50 29,12 64,19 105,19l120 0 0 104c-181,-8 -336,-11 -468,-11 -115,0 -246,3 -394,11l0 -104 122 0c89,0 140,-23 151,-70 11,-47 17,-279 17,-697 0,-395 -6,-616 -17,-663 -11,-48 -62,-72 -151,-72l-122 0zm3032 -103l0 103 -120 0c-101,0 -154,32 -159,97 -4,64 -7,282 -7,652l3 428c1,145 4,227 7,246 3,19 16,37 38,54 22,17 61,25 118,25l120 0 0 104c-180,-8 -335,-11 -466,-11 -115,0 -245,3 -392,11l0 -104 121 0c74,0 120,-15 138,-45 17,-30 27,-129 27,-296l0 -795c0,-122 8,-215 25,-279 -40,66 -80,128 -120,187 -54,83 -101,157 -140,221l-375 618c-154,255 -269,424 -345,509 -36,5 -120,20 -255,47 12,-269 18,-527 18,-774 0,-500 -6,-774 -17,-823 -10,-48 -61,-72 -151,-72l-122 0 0 -103c149,7 280,11 393,11 122,0 278,-4 468,-11l0 103 -120 0c-33,0 -67,6 -99,18 -32,12 -51,31 -57,56 -7,26 -9,123 -9,291l0 778c0,77 -4,145 -13,205 41,-41 144,-195 309,-465l247 -401c46,-75 161,-270 346,-585 95,7 173,11 232,11 34,0 153,-4 357,-11zm-1389 -380l-14 -53c101,-64 179,-120 236,-170 182,108 402,171 658,190l9 57 -109 56 -157 4c-160,0 -368,-28 -623,-84z"/>
   <path class="fil2" d="M17110 13164c-16,16 -29,24 -38,24 -19,0 -29,-9 -29,-28 0,-7 5,-18 15,-34 50,-59 75,-113 75,-160 0,-101 -110,-152 -331,-152 -284,0 -576,140 -876,421 -265,256 -397,467 -397,635 0,66 33,99 99,99 41,0 100,-17 175,-52 183,-79 336,-194 459,-346 48,-63 90,-161 128,-293 25,-101 41,-193 48,-275 12,-60 71,-90 175,-90 97,0 143,27 137,81 -6,82 -28,217 -66,405 -38,187 -93,428 -166,721 123,-19 227,-22 312,-9 237,28 355,107 355,237 0,78 -47,162 -142,250 -12,13 -25,19 -38,19 -18,0 -28,-8 -28,-23 0,-13 6,-26 19,-38 66,-60 99,-117 99,-171 0,-104 -104,-156 -312,-156 -35,3 -77,7 -128,12 -50,5 -109,12 -175,21 -186,707 -494,1275 -923,1704 -236,243 -506,437 -809,582 -328,164 -648,246 -961,246 -236,0 -424,-59 -563,-177 -139,-118 -208,-272 -208,-462 0,-220 110,-446 331,-676 243,-256 597,-488 1063,-696 465,-208 1070,-407 1815,-596 12,-60 29,-138 49,-235 21,-96 45,-213 74,-352l-114 113c-79,79 -147,145 -203,197 -57,52 -103,92 -138,120 -148,117 -281,176 -397,176 -139,0 -209,-92 -209,-275 0,-265 196,-549 587,-852 319,-249 641,-374 966,-374 252,0 378,73 378,218 0,69 -36,150 -108,241zm-914 1155c-341,95 -601,170 -781,227 -189,60 -364,119 -525,178 -161,58 -309,119 -445,182 -192,88 -363,184 -511,286 -148,103 -273,214 -374,334 -177,211 -265,415 -265,611 0,160 60,286 180,376 120,90 279,135 478,135 426,0 842,-180 1249,-540 483,-429 814,-1025 994,-1789zm1373 -582l0 5c-26,110 -38,198 -38,265 0,170 61,255 184,255 146,0 272,-77 379,-232 -233,-34 -409,-132 -525,-293zm445 -842c-149,164 -269,358 -360,582 60,258 229,407 506,445 111,-215 166,-414 166,-597 0,-117 -28,-216 -83,-298 -55,-82 -132,-126 -229,-132zm89 -90l-18 19c113,37 208,104 284,198 75,95 113,199 113,313 0,202 -54,394 -161,577l-9 19c293,-9 533,-107 719,-293 16,-16 32,-24 47,-24 19,0 29,11 29,33 0,32 -16,58 -47,81 -234,205 -507,307 -819,307 -85,107 -186,195 -303,263 -117,68 -226,102 -327,102 -214,0 -318,-127 -312,-379 0,-174 46,-380 137,-620 -3,-25 -5,-52 -7,-81 -2,-28 -2,-56 -2,-85 0,-262 127,-407 383,-435 69,-79 131,-118 185,-118 88,0 132,25 132,75 0,16 -8,32 -24,48zm2007 151c0,-13 23,-21 69,-26 46,-5 97,-6 154,-5 56,2 108,7 153,15 46,7 69,18 69,30 0,19 -6,30 -19,33 -44,76 -80,149 -106,220 -27,71 -50,143 -69,216 -19,72 -35,147 -47,225 -13,77 -27,158 -43,243 88,-104 195,-224 320,-362 124,-137 272,-292 442,-466 76,-82 137,-123 185,-123 22,0 33,16 33,47 0,22 -5,49 -14,81 -117,378 -176,645 -176,800 0,176 64,265 190,265 129,0 271,-59 426,-175 28,-26 71,-64 128,-116 56,-52 126,-119 208,-201 25,-26 46,-38 61,-38 16,0 27,9 33,28 4,25 -1,44 -14,57 -353,372 -667,558 -942,558 -239,0 -359,-181 -359,-544 0,-79 4,-166 14,-260 -44,38 -90,80 -137,128 -48,47 -94,94 -140,142 -46,47 -89,93 -130,137 -41,44 -76,83 -104,118 12,57 -7,95 -57,114 -54,19 -95,9 -123,-29 -13,-47 -17,-114 -14,-201 3,-87 14,-181 33,-284 19,-102 45,-205 78,-307 33,-103 73,-194 121,-273l-123 5c-54,16 -95,44 -123,85 -29,41 -52,89 -69,142 -17,54 -32,108 -43,164 -11,55 -26,105 -45,149 -50,123 -109,236 -175,338 -66,103 -136,186 -210,251 -75,65 -151,106 -230,123 -79,17 -156,2 -232,-45 -47,-28 -87,-73 -121,-135 -33,-61 -49,-135 -49,-220 -7,-69 12,-125 54,-166 43,-41 86,-63 130,-66 45,-3 81,16 109,57 29,41 25,109 -9,203 -35,67 -42,118 -22,154 21,37 45,55 74,55 104,6 192,-29 265,-104 72,-76 140,-190 203,-341 29,-73 54,-145 76,-216 22,-71 47,-137 76,-198 28,-62 61,-117 99,-166 38,-49 85,-88 142,-116z"/>
   <path class="fil3" d="M26220 9504l-7 -2 4 -5 3 7zm0 0c121,0 163,-222 163,-222 23,-34 89,5 258,-278 200,-334 354,-764 527,-1107 121,-239 238,-483 359,-723l278 -535c26,-52 94,-127 63,-184 -78,5 -108,69 -150,126l-329 506c-135,226 -287,458 -430,681 -145,225 -292,448 -440,670 -73,110 -150,218 -231,321 -226,289 -96,349 -114,403 -17,21 -27,15 -46,40 -45,60 -72,119 -80,190 -41,4 -142,-32 -226,85 -43,60 -65,149 -110,216 -172,255 -384,203 -420,242 3,76 222,119 281,121 92,4 65,9 139,0 64,-7 100,9 224,-37 87,-33 184,-108 230,-184 28,-45 49,-95 59,-144 17,-80 11,-117 -5,-187z"/>
  </g>
 </g>
</svg>
